<?xml version="1.0" encoding="UTF-8"?>
<svg version="1.1" xmlns="http://www.w3.org/2000/svg" width="128" height="128">
<path d="M0 0 C8.91 0 17.82 0 27 0 C27 1.32 27 2.64 27 4 C28.32 4 29.64 4 31 4 C31 6.64 31 9.28 31 12 C32.32 12 33.64 12 35 12 C35 16.95 35 21.9 35 27 C33.68 27 32.36 27 31 27 C31 29.31 31 31.62 31 34 C32.32 34 33.64 34 35 34 C35 35.32 35 36.64 35 38 C37.64 38 40.28 38 43 38 C43 39.32 43 40.64 43 42 C44.65 42 46.3 42 48 42 C48 43.32 48 44.64 48 46 C49.32 46 50.64 46 52 46 C52 48.97 52 51.94 52 55 C53.32 55 54.64 55 56 55 C56 63.91 56 72.82 56 82 C54.68 82 53.36 82 52 82 C52 84.64 52 87.28 52 90 C50.68 90 49.36 90 48 90 C48 91.65 48 93.3 48 95 C46.35 95 44.7 95 43 95 C43 96.32 43 97.64 43 99 C41.68 99 40.36 99 39 99 C39 100.32 39 101.64 39 103 C37.68 103 36.36 103 35 103 C35 104.32 35 105.64 35 107 C20.48 107 5.96 107 -9 107 C-9 105.68 -9 104.36 -9 103 C-10.32 103 -11.64 103 -13 103 C-13 101.68 -13 100.36 -13 99 C-14.32 99 -15.64 99 -17 99 C-17 97.68 -17 96.36 -17 95 C-18.65 94.67 -20.3 94.34 -22 94 C-21.67 92.68 -21.34 91.36 -21 90 C-22.65 90 -24.3 90 -26 90 C-26 87.36 -26 84.72 -26 82 C-27.32 82 -28.64 82 -30 82 C-30 73.09 -30 64.18 -30 55 C-28.68 55 -27.36 55 -26 55 C-26 52.03 -26 49.06 -26 46 C-24.35 46 -22.7 46 -21 46 C-21 44.68 -21 43.36 -21 42 C-19.68 42 -18.36 42 -17 42 C-17 40.68 -17 39.36 -17 38 C-14.36 38 -11.72 38 -9 38 C-9 36.68 -9 35.36 -9 34 C-7.02 33.505 -7.02 33.505 -5 33 C-5 31.35 -5 29.7 -5 28 C-6.32 27.67 -7.64 27.34 -9 27 C-9 22.05 -9 17.1 -9 12 C-7.68 12 -6.36 12 -5 12 C-5 9.36 -5 6.72 -5 4 C-3.35 4 -1.7 4 0 4 C0 2.68 0 1.36 0 0 Z M6 31 C6 35.29 6 39.58 6 44 C3.03 44 0.06 44 -3 44 C-3 45.32 -3 46.64 -3 48 C-4.32 48 -5.64 48 -7 48 C-7 49.65 -7 51.3 -7 53 C-8.32 53 -9.64 53 -11 53 C-11 54.32 -11 55.64 -11 57 C-12.65 57 -14.3 57 -16 57 C-16 57.66 -16 58.32 -16 59 C1.49 59 18.98 59 37 59 C37 57.02 37 55.04 37 53 C36.01 52.67 35.02 52.34 34 52 C33.3125 49.9375 33.3125 49.9375 33 48 C31.68 48 30.36 48 29 48 C29 46.68 29 45.36 29 44 C26.03 44 23.06 44 20 44 C20 42.68 20 41.36 20 40 C17.03 40 14.06 40 11 40 C11 37.03 11 34.06 11 31 C9.35 31 7.7 31 6 31 Z " fill="#AC44DA" transform="translate(51,10)"/>
<path d="M0 0 C8.91 0 17.82 0 27 0 C27 1.32 27 2.64 27 4 C28.32 4 29.64 4 31 4 C31 6.64 31 9.28 31 12 C32.32 12 33.64 12 35 12 C35 16.95 35 21.9 35 27 C33.68 27 32.36 27 31 27 C31 29.31 31 31.62 31 34 C32.32 34 33.64 34 35 34 C35 35.32 35 36.64 35 38 C37.64 38 40.28 38 43 38 C43 39.32 43 40.64 43 42 C44.65 42 46.3 42 48 42 C48 43.32 48 44.64 48 46 C49.32 46 50.64 46 52 46 C52 48.97 52 51.94 52 55 C53.32 55 54.64 55 56 55 C56 63.91 56 72.82 56 82 C54.68 82 53.36 82 52 82 C52 84.64 52 87.28 52 90 C50.68 90 49.36 90 48 90 C48 91.65 48 93.3 48 95 C46.35 95 44.7 95 43 95 C43 96.32 43 97.64 43 99 C41.68 99 40.36 99 39 99 C39 100.32 39 101.64 39 103 C37.68 103 36.36 103 35 103 C35 104.32 35 105.64 35 107 C20.48 107 5.96 107 -9 107 C-9 105.68 -9 104.36 -9 103 C-10.32 103 -11.64 103 -13 103 C-13 101.68 -13 100.36 -13 99 C-14.32 99 -15.64 99 -17 99 C-17 97.68 -17 96.36 -17 95 C-18.65 94.67 -20.3 94.34 -22 94 C-21.67 92.68 -21.34 91.36 -21 90 C-22.65 90 -24.3 90 -26 90 C-26 87.36 -26 84.72 -26 82 C-27.32 82 -28.64 82 -30 82 C-30 73.09 -30 64.18 -30 55 C-28.68 55 -27.36 55 -26 55 C-26 52.03 -26 49.06 -26 46 C-24.35 46 -22.7 46 -21 46 C-21 44.68 -21 43.36 -21 42 C-19.68 42 -18.36 42 -17 42 C-17 40.68 -17 39.36 -17 38 C-14.36 38 -11.72 38 -9 38 C-9 36.68 -9 35.36 -9 34 C-7.02 33.505 -7.02 33.505 -5 33 C-5 31.35 -5 29.7 -5 28 C-6.32 27.67 -7.64 27.34 -9 27 C-9 22.05 -9 17.1 -9 12 C-7.68 12 -6.36 12 -5 12 C-5 9.36 -5 6.72 -5 4 C-3.35 4 -1.7 4 0 4 C0 2.68 0 1.36 0 0 Z M0 26 C0 30.29 0 34.58 0 39 C-1.32 39 -2.64 39 -4 39 C-4 40.32 -4 41.64 -4 43 C-6.64 43 -9.28 43 -12 43 C-12 44.32 -12 45.64 -12 47 C-13.32 47 -14.64 47 -16 47 C-16 48.65 -16 50.3 -16 52 C-17.65 52 -19.3 52 -21 52 C-21 54.64 -21 57.28 -21 60 C-22.32 60 -23.64 60 -25 60 C-25 66.93 -25 73.86 -25 81 C-23.68 81 -22.36 81 -21 81 C-21 83.97 -21 86.94 -21 90 C-19.68 90 -18.36 90 -17 90 C-17 91.32 -17 92.64 -17 94 C-15.35 94 -13.7 94 -12 94 C-12 95.32 -12 96.64 -12 98 C-10.68 98 -9.36 98 -8 98 C-8 99.65 -8 101.3 -8 103 C5.86 103 19.72 103 34 103 C34 101.35 34 99.7 34 98 C35.32 98 36.64 98 38 98 C38 96.68 38 95.36 38 94 C39.65 94 41.3 94 43 94 C43 92.68 43 91.36 43 90 C44.32 90 45.64 90 47 90 C47 87.03 47 84.06 47 81 C48.32 81 49.64 81 51 81 C51 74.07 51 67.14 51 60 C49.68 60 48.36 60 47 60 C47 57.36 47 54.72 47 52 C45.35 52 43.7 52 42 52 C42 50.35 42 48.7 42 47 C40.68 47 39.36 47 38 47 C38 45.68 38 44.36 38 43 C35.36 43 32.72 43 30 43 C30 41.68 30 40.36 30 39 C28.68 39 27.36 39 26 39 C26 34.71 26 30.42 26 26 C17.42 26 8.84 26 0 26 Z " fill="#1E171F" transform="translate(51,10)"/>
<path d="M0 0 C1.65 0 3.3 0 5 0 C5 3.63 5 7.26 5 11 C6.32 11 7.64 11 9 11 C9 12.65 9 14.3 9 16 C10.32 16 11.64 16 13 16 C13 17.32 13 18.64 13 20 C15.97 20 18.94 20 22 20 C22 21.32 22 22.64 22 24 C25.63 24 29.26 24 33 24 C33 22.68 33 21.36 33 20 C35.97 20 38.94 20 42 20 C42 18.68 42 17.36 42 16 C43.65 16 45.3 16 47 16 C47 14.68 47 13.36 47 12 C48.32 12 49.64 12 51 12 C51 10.68 51 9.36 51 8 C52.65 8 54.3 8 56 8 C56 6.68 56 5.36 56 4 C56.99 4 57.98 4 59 4 C59 2.68 59 1.36 59 0 C61.97 0 64.94 0 68 0 C68 8.25 68 16.5 68 25 C66.68 25 65.36 25 64 25 C64 26.32 64 27.64 64 29 C62.35 29 60.7 29 59 29 C59 30.32 59 31.64 59 33 C57.68 33 56.36 33 55 33 C55 34.65 55 36.3 55 38 C41.14 38 27.28 38 13 38 C13 36.35 13 34.7 13 33 C11.68 33 10.36 33 9 33 C9 31.68 9 30.36 9 29 C7.35 29 5.7 29 4 29 C4 27.68 4 26.36 4 25 C2.68 25 1.36 25 0 25 C0 16.75 0 8.5 0 0 Z " fill="#63208F" transform="translate(30,75)"/>
<path d="M0 0 C1.65 0 3.3 0 5 0 C5 3.63 5 7.26 5 11 C6.32 11 7.64 11 9 11 C9 12.65 9 14.3 9 16 C10.32 16 11.64 16 13 16 C13 17.32 13 18.64 13 20 C15.97 20 18.94 20 22 20 C22 21.32 22 22.64 22 24 C25.63 24 29.26 24 33 24 C33 22.68 33 21.36 33 20 C35.97 20 38.94 20 42 20 C42 18.68 42 17.36 42 16 C43.65 16 45.3 16 47 16 C47 14.68 47 13.36 47 12 C48.32 12 49.64 12 51 12 C51 10.68 51 9.36 51 8 C52.65 8 54.3 8 56 8 C56 6.68 56 5.36 56 4 C56.99 4 57.98 4 59 4 C59 2.68 59 1.36 59 0 C60.32 0 61.64 0 63 0 C63 3.96 63 7.92 63 12 C61.68 12 60.36 12 59 12 C59 13.32 59 14.64 59 16 C57.68 16 56.36 16 55 16 C55 17.32 55 18.64 55 20 C53.68 20 52.36 20 51 20 C51 21.65 51 23.3 51 25 C49.68 25 48.36 25 47 25 C47 26.32 47 27.64 47 29 C37.1 29 27.2 29 17 29 C17 27.68 17 26.36 17 25 C14.36 25 11.72 25 9 25 C9 26.32 9 27.64 9 29 C7.35 29 5.7 29 4 29 C4 27.68 4 26.36 4 25 C2.68 25 1.36 25 0 25 C0 16.75 0 8.5 0 0 Z " fill="#7322A9" transform="translate(30,75)"/>
<path d="M0 0 C1.32 0 2.64 0 4 0 C5.13480527 3.60993172 5.10015767 6.9842327 5.0625 10.75 C5.05347656 11.92046875 5.04445313 13.0909375 5.03515625 14.296875 C5.02355469 15.18890625 5.01195313 16.0809375 5 17 C2.03 17 -0.94 17 -4 17 C-4 18.32 -4 19.64 -4 21 C-5.32 21 -6.64 21 -8 21 C-8 22.65 -8 24.3 -8 26 C-9.32 26 -10.64 26 -12 26 C-12 27.32 -12 28.64 -12 30 C-13.65 30 -15.3 30 -17 30 C-17 30.66 -17 31.32 -17 32 C-11.72 32 -6.44 32 -1 32 C-1 34.97 -1 37.94 -1 41 C-3.64 41 -6.28 41 -9 41 C-9 43.97 -9 46.94 -9 50 C-7.68 50 -6.36 50 -5 50 C-5 51.32 -5 52.64 -5 54 C-7.64 54 -10.28 54 -13 54 C-13 52.35 -13 50.7 -13 49 C-14.32 49 -15.64 49 -17 49 C-17 45.37 -17 41.74 -17 38 C-18.65 38 -20.3 38 -22 38 C-22 43.28 -22 48.56 -22 54 C-23.32 54 -24.64 54 -26 54 C-26 47.07 -26 40.14 -26 33 C-24.68 33 -23.36 33 -22 33 C-22 30.36 -22 27.72 -22 25 C-20.35 25 -18.7 25 -17 25 C-17 23.35 -17 21.7 -17 20 C-15.68 20 -14.36 20 -13 20 C-13 18.68 -13 17.36 -13 16 C-10.36 16 -7.72 16 -5 16 C-5 14.68 -5 13.36 -5 12 C-3.35 12 -1.7 12 0 12 C0 8.04 0 4.08 0 0 Z " fill="#B566D4" transform="translate(52,37)"/>
<path d="M0 0 C8.58 0 17.16 0 26 0 C26 4.29 26 8.58 26 13 C27.32 13 28.64 13 30 13 C30 14.32 30 15.64 30 17 C30.99 17.33 31.98 17.66 33 18 C28.71 18 24.42 18 20 18 C20 16.68 20 15.36 20 14 C17.03 14 14.06 14 11 14 C11 11.03 11 8.06 11 5 C9.02 5 7.04 5 5 5 C5 3.68 5 2.36 5 1 C3.68 1 2.36 1 1 1 C1 4.96 1 8.92 1 13 C0.67 13 0.34 13 0 13 C0 8.71 0 4.42 0 0 Z " fill="#B062CC" transform="translate(51,36)"/>
<path d="M0 0 C0 1.32 0 2.64 0 4 C1.32 4 2.64 4 4 4 C4 5.65 4 7.3 4 9 C5.65 9 7.3 9 9 9 C9 11.64 9 14.28 9 17 C10.32 17 11.64 17 13 17 C13 23.93 13 30.86 13 38 C11.68 38 10.36 38 9 38 C9 32.39 9 26.78 9 21 C6.03 21 3.06 21 0 21 C-0.33 17.37 -0.66 13.74 -1 10 C-2.32 9.67 -3.64 9.34 -5 9 C-5 7.68 -5 6.36 -5 5 C-6.32 5 -7.64 5 -9 5 C-9 3.68 -9 2.36 -9 1 C-5.92677456 0.08941469 -3.19902639 -0.08886184 0 0 Z " fill="#B767D5" transform="translate(89,53)"/>
<path d="M0 0 C1.32 0 2.64 0 4 0 C4 1.32 4 2.64 4 4 C5.65 4 7.3 4 9 4 C9 5.32 9 6.64 9 8 C10.32 8 11.64 8 13 8 C13 9.65 13 11.3 13 13 C27.19 13 41.38 13 56 13 C56 14.32 56 15.64 56 17 C41.48 17 26.96 17 12 17 C12 15.68 12 14.36 12 13 C10.68 13 9.36 13 8 13 C8 11.68 8 10.36 8 9 C6.68 9 5.36 9 4 9 C4 7.68 4 6.36 4 5 C2.35 4.67 0.7 4.34 -1 4 C-0.67 2.68 -0.34 1.36 0 0 Z " fill="#1A141B" transform="translate(30,100)"/>
<path d="M0 0 C12.21 0 24.42 0 37 0 C37 1.65 37 3.3 37 5 C35.68 5 34.36 5 33 5 C33 6.32 33 7.64 33 9 C28.71 9 24.42 9 20 9 C20 7.68 20 6.36 20 5 C13.4 5 6.8 5 0 5 C0 3.35 0 1.7 0 0 Z " fill="#7221AA" transform="translate(52,69)"/>
<path d="M0 0 C8.58 0 17.16 0 26 0 C26 2.97 26 5.94 26 9 C17.42 9 8.84 9 0 9 C0 6.03 0 3.06 0 0 Z " fill="#66432A" transform="translate(51,14)"/>
<path d="M0 0 C3.96 0 7.92 0 12 0 C12 2.97 12 5.94 12 9 C9.36 9 6.72 9 4 9 C4 11.97 4 14.94 4 18 C5.32 18 6.64 18 8 18 C8 19.32 8 20.64 8 22 C5.36 22 2.72 22 0 22 C0 14.74 0 7.48 0 0 Z " fill="#DFA1F9" transform="translate(39,69)"/>
<path d="M0 0 C11.22 0 22.44 0 34 0 C34 1.65 34 3.3 34 5 C22.78 5 11.56 5 0 5 C0 3.35 0 1.7 0 0 Z " fill="#6B3587" transform="translate(47,27)"/>
<path d="M0 0 C0.33 0 0.66 0 1 0 C1 1.65 1 3.3 1 5 C7.6 5 14.2 5 21 5 C21 6.65 21 8.3 21 10 C11.76 10 2.52 10 -7 10 C-7 12.31 -7 14.62 -7 17 C-6.01 17.33 -5.02 17.66 -4 18 C-5.32 18 -6.64 18 -8 18 C-8 15.03 -8 12.06 -8 9 C-5.36 9 -2.72 9 0 9 C0 6.03 0 3.06 0 0 Z " fill="#BA58E6" transform="translate(51,69)"/>
<path d="M0 0 C13.53 0 27.06 0 41 0 C41 0.99 41 1.98 41 3 C27.47 3 13.94 3 0 3 C0 2.01 0 1.02 0 0 Z " fill="#B963DA" transform="translate(44,109)"/>
<path d="M0 0 C4.29 0 8.58 0 13 0 C13 1.32 13 2.64 13 4 C11.68 4 10.36 4 9 4 C9 5.32 9 6.64 9 8 C5.04 8 1.08 8 -3 8 C-3 6.68 -3 5.36 -3 4 C-2.01 4 -1.02 4 0 4 C0 2.68 0 1.36 0 0 Z " fill="#A97A4A" transform="translate(59,15)"/>
<path d="M0 0 C6.93 0 13.86 0 21 0 C21 1.65 21 3.3 21 5 C15.72 5 10.44 5 5 5 C5 3.68 5 2.36 5 1 C3.68 1 2.36 1 1 1 C1 4.96 1 8.92 1 13 C0.67 13 0.34 13 0 13 C0 8.71 0 4.42 0 0 Z " fill="#724652" transform="translate(51,36)"/>
<path d="M0 0 C1.32 0 2.64 0 4 0 C5.13480527 3.60993172 5.10015767 6.9842327 5.0625 10.75 C5.05347656 11.92046875 5.04445313 13.0909375 5.03515625 14.296875 C5.02355469 15.18890625 5.01195312 16.0809375 5 17 C3.02 17 1.04 17 -1 17 C-0.67 11.39 -0.34 5.78 0 0 Z " fill="#BA69D8" transform="translate(52,37)"/>
<path d="M0 0 C6.93 0 13.86 0 21 0 C21 1.32 21 2.64 21 4 C14.07 4 7.14 4 0 4 C0 2.68 0 1.36 0 0 Z " fill="#C072DC" transform="translate(51,28)"/>
<path d="M0 0 C1.98 0 3.96 0 6 0 C6 2.97 6 5.94 6 9 C4.02 9 2.04 9 0 9 C0 6.03 0 3.06 0 0 Z " fill="#B967D8" transform="translate(62,41)"/>
<path d="M0 0 C3.96 0 7.92 0 12 0 C12 1.32 12 2.64 12 4 C8.04 4 4.08 4 0 4 C0 2.68 0 1.36 0 0 Z " fill="#8E5C3C" transform="translate(56,37)"/>
<path d="M0 0 C2.31 0 4.62 0 7 0 C7 1.32 7 2.64 7 4 C6.01 4 5.02 4 4 4 C4 5.32 4 6.64 4 8 C2.68 8 1.36 8 0 8 C0 5.36 0 2.72 0 0 Z " fill="#7D502E" transform="translate(52,15)"/>
<path d="M0 0 C1.65 0 3.3 0 5 0 C5 2.64 5 5.28 5 8 C3.35 8 1.7 8 0 8 C0 5.36 0 2.72 0 0 Z " fill="#AB5ACC" transform="translate(93,91)"/>
<path d="M0 0 C4.29 0 8.58 0 13 0 C13 0.99 13 1.98 13 3 C8.71 3 4.42 3 0 3 C0 2.01 0 1.02 0 0 Z " fill="#C65FF3" transform="translate(72,79)"/>
<path d="M0 0 C1.32 0 2.64 0 4 0 C4 2.97 4 5.94 4 9 C2.68 9 1.36 9 0 9 C0 6.03 0 3.06 0 0 Z " fill="#812CB5" transform="translate(68,41)"/>
<path d="M0 0 C2.97 0 5.94 0 9 0 C9 1.32 9 2.64 9 4 C6.03 4 3.06 4 0 4 C0 2.68 0 1.36 0 0 Z " fill="#852DB9" transform="translate(72,28)"/>
<path d="M0 0 C1.32 0 2.64 0 4 0 C4 2.64 4 5.28 4 8 C2.68 8 1.36 8 0 8 C0 5.36 0 2.72 0 0 Z " fill="#19131A" transform="translate(99,92)"/>
<path d="M0 0 C1.32 0 2.64 0 4 0 C4 2.64 4 5.28 4 8 C2.68 8 1.36 8 0 8 C0 5.36 0 2.72 0 0 Z " fill="#AF59D4" transform="translate(31,91)"/>
<path d="M0 0 C2.64 0 5.28 0 8 0 C8 1.32 8 2.64 8 4 C5.36 4 2.72 4 0 4 C0 2.68 0 1.36 0 0 Z " fill="#CF7DF2" transform="translate(39,87)"/>
<path d="M0 0 C1.32 0 2.64 0 4 0 C4 2.64 4 5.28 4 8 C2.68 8 1.36 8 0 8 C0 5.36 0 2.72 0 0 Z " fill="#B049DC" transform="translate(35,78)"/>
<path d="M0 0 C1.98 0 3.96 0 6 0 C6 1.65 6 3.3 6 5 C4.02 5 2.04 5 0 5 C0 3.35 0 1.7 0 0 Z " fill="#DA9CF1" transform="translate(51,49)"/>
<path d="M0 0 C0.33 0 0.66 0 1 0 C1 2.97 1 5.94 1 9 C-0.65 9 -2.3 9 -4 9 C-4 7.35 -4 5.7 -4 4 C-2.68 4 -1.36 4 0 4 C0 2.68 0 1.36 0 0 Z " fill="#291D2C" transform="translate(89,104)"/>
<path d="M0 0 C4.29 0 8.58 0 13 0 C13 0.33 13 0.66 13 1 C10.03 1 7.06 1 4 1 C4 1.99 4 2.98 4 4 C2.68 4 1.36 4 0 4 C0 2.68 0 1.36 0 0 Z " fill="#AE56D8" transform="translate(85,74)"/>
<path d="M0 0 C1.32 0 2.64 0 4 0 C4 1.65 4 3.3 4 5 C2.35 4.67 0.7 4.34 -1 4 C-0.67 2.68 -0.34 1.36 0 0 Z " fill="#161216" transform="translate(30,100)"/>
<path d="M0 0 C1.32 0 2.64 0 4 0 C4 1.65 4 3.3 4 5 C2.68 5 1.36 5 0 5 C0 3.35 0 1.7 0 0 Z " fill="#A756CA" transform="translate(35,99)"/>
<path d="M0 0 C1.32 0 2.64 0 4 0 C4 1.65 4 3.3 4 5 C2.68 5 1.36 5 0 5 C0 3.35 0 1.7 0 0 Z " fill="#7427AA" transform="translate(35,69)"/>
<path d="M0 0 C1.65 0 3.3 0 5 0 C5 1.32 5 2.64 5 4 C3.35 4 1.7 4 0 4 C0 2.68 0 1.36 0 0 Z " fill="#D293EA" transform="translate(51,28)"/>
<path d="M0 0 C1.65 0 3.3 0 5 0 C5 1.32 5 2.64 5 4 C3.68 4 2.36 4 1 4 C0.67 2.68 0.34 1.36 0 0 Z " fill="#261B28" transform="translate(34,104)"/>
</svg>
